<svg width="3737" height="689" viewBox="0 0 3737 689" fill="none" xmlns="http://www.w3.org/2000/svg">
<path d="M2349.68 238.938H2507.62C2576.27 238.938 2615.64 276.393 2615.64 332.074C2615.64 364.25 2598.85 392.078 2570.04 406.482C2607.02 418.976 2627.18 451.127 2627.18 489.538C2627.18 542.353 2591.18 586.998 2511.95 586.998H2349.68V238.938ZM2493.7 385.844C2533.06 385.844 2550.36 365.683 2550.36 336.398C2550.36 306.634 2531.63 289.817 2499.48 289.817H2426C2418.58 289.817 2412.6 295.825 2412.6 303.215V372.42C2412.6 379.836 2418.61 385.819 2426 385.819H2493.7V385.844ZM2500.91 535.641C2541.23 535.641 2560.44 514.525 2560.44 484.259C2560.44 449.694 2537.86 432.877 2502.82 432.877H2425.97C2418.56 432.877 2412.57 438.885 2412.57 446.276V522.192C2412.57 529.608 2418.58 535.591 2425.97 535.591H2500.91V535.641Z" fill="white"/>
<path d="M2687.26 226.922H2747.74V586.998H2687.26V226.922Z" fill="white"/>
<path d="M2940.83 331.117C3021.97 331.117 3078.13 383.454 3078.13 461.231C3078.13 539.486 3021.95 591.823 2940.83 591.823C2859.68 591.823 2803.52 539.486 2803.52 461.231C2803.52 383.454 2859.71 331.117 2940.83 331.117ZM2941.33 539.486C2987.91 539.486 3016.69 508.29 3016.69 461.231C3016.69 412.74 2986.45 382.977 2941.81 382.977C2894.75 382.977 2865.46 414.173 2865.46 461.709C2865.46 510.2 2895.7 539.486 2941.33 539.486Z" fill="white"/>
<path d="M3253.45 331.117C3320.66 331.117 3371.07 368.573 3379.71 424.253H3318.25C3310.08 398.336 3284.16 383.454 3253.45 383.454C3209.28 383.454 3182.88 414.651 3182.88 461.709C3182.88 509.245 3210.74 539.486 3253.95 539.486C3286.6 539.486 3310.13 523.649 3318.28 498.687H3379.74C3370.61 555.348 3320.69 591.823 3254.43 591.823C3175.69 591.823 3120.97 539.486 3120.97 461.231C3120.94 382.952 3175.67 331.117 3253.45 331.117Z" fill="white"/>
<path d="M3434.99 226.922H3495.5V445.371L3608.8 335.92H3683.68L3582.85 436.271L3737 637.953H3666.91L3540.14 479.961L3495.5 523.148V586.998H3435.02V226.922H3434.99Z" fill="white"/>
<path d="M1775.28 526.77H1710.8V509.626C1761.83 500.752 1793.38 466.791 1793.38 420.411C1793.38 403.544 1788.48 387.455 1779.43 374.333H1852.73L1853.11 327.828H1689.28C1621.36 327.828 1577.49 364.731 1577.49 421.844C1577.49 468.4 1608.69 502.009 1659.12 510.129V526.77H1648.48C1593.81 526.77 1561.18 554.573 1561.18 601.103C1561.18 635.014 1577.17 675.436 1653.29 675.436H1772.89C1831.06 675.436 1863.09 648.689 1863.09 600.148C1863.06 553.517 1831.09 526.77 1775.28 526.77ZM1796.47 595.824C1796.47 614.15 1786.09 622.294 1762.79 622.294H1661.88C1630.84 622.294 1627.24 607.463 1627.24 596.302C1627.24 574.809 1645.57 570.309 1660.93 570.309H1762.79C1786.09 570.309 1796.47 578.177 1796.47 595.824ZM1731.11 420.185C1731.11 438.511 1725.51 446.655 1712.94 446.655H1658.46C1641.7 446.655 1639.76 431.824 1639.76 420.663C1639.76 399.17 1649.64 394.67 1657.94 394.67H1712.94C1725.51 394.67 1731.11 402.538 1731.11 420.185Z" fill="white"/>
<path d="M2219.14 495.374L2218.41 497.637C2210.52 521.769 2187.64 536.173 2157.2 536.173C2115.4 536.173 2089.43 507.642 2089.43 461.69C2089.43 415.436 2115.22 386.728 2156.72 386.728C2187.29 386.728 2210.92 401.484 2218.41 425.239L2219.14 427.527H2286.84L2286.26 423.731C2277.36 366.366 2225.3 327.805 2156.75 327.805C2076.78 327.805 2020.95 382.656 2020.95 461.187C2020.95 541.251 2075.9 595.072 2157.7 595.072C2226.41 595.072 2276.88 557.415 2286.26 499.17L2286.86 495.349H2219.14V495.374Z" fill="white"/>
<path d="M1965.07 382.953H1966.37V439.614V547.984V619.728C1966.37 627.319 1958.05 631.92 1951.57 628.023C1923.87 611.357 1905.24 584.912 1899.91 551.805L1899.78 551.051L1899.28 548.009V382.978H1900.59H1965.07V382.953Z" fill="white"/>
<path d="M1039.64 425.692L921.945 235.674H845.777V589.993H916.214V493.891C916.214 448.919 915.083 401.71 913.223 341.655L1015.38 500.728H1063.47L1164.5 342.46C1162.31 395.149 1161.18 446.053 1161.18 493.916V590.019H1231.14V235.648H1156.41L1039.64 425.692Z" fill="white"/>
<path d="M1990.29 288.613L1951.73 272.022C1951.43 271.896 1951.18 271.645 1951.05 271.343L1934.06 232.354C1933.61 231.299 1932.1 231.299 1931.64 232.354L1914.63 271.318C1914.5 271.62 1914.25 271.871 1913.95 271.997L1875.39 288.588C1874.33 289.04 1874.33 290.549 1875.39 291.026L1900.6 301.886L1913.95 307.617C1914.25 307.743 1914.5 307.995 1914.63 308.296L1931.62 347.285C1932.07 348.341 1933.58 348.341 1934.03 347.285L1951.03 308.296C1951.15 307.995 1951.4 307.743 1951.7 307.617L1965.05 301.886L1990.27 291.026C1991.35 290.574 1991.35 289.066 1990.29 288.613Z" fill="white"/>
<path d="M1516.81 390.195C1504.12 350.176 1466.74 327.828 1409.87 327.828C1369.45 327.828 1337.38 338.839 1317.06 359.678C1301.18 375.993 1293.11 398.013 1293.76 423.378L1293.84 426.57H1356.13L1356 423.176C1355.6 411.739 1358.79 402.413 1365.46 395.5C1373.73 386.928 1387.25 382.403 1404.57 382.403C1436.34 382.403 1454.57 396.606 1454.57 421.367V429.461L1370.11 438.737C1316.51 444.745 1287 473.025 1287 518.349C1287 564.98 1320.51 595.095 1372.39 595.095C1410.6 595.095 1443.53 579.283 1459.75 553.969L1460.05 554.9V555.101L1460.5 557.916L1460.6 558.62C1462.46 570.108 1466.08 580.716 1471.21 590.319C1479.81 606.407 1492.7 619.605 1508.97 629.157C1514.57 632.45 1521.64 628.152 1521.64 621.641V590.319V555.126V492.834V423.302C1521.66 411.186 1519.98 400.175 1516.81 390.195ZM1454.59 482.829C1454.59 516.816 1427.92 541.476 1391.15 541.476C1366.94 541.476 1353.62 530.365 1353.62 510.204C1353.62 492.055 1364.78 481.823 1387.73 478.907L1442.13 471.869C1448.74 471.014 1454.59 476.167 1454.59 482.829Z" fill="white"/>
<path fill-rule="evenodd" clip-rule="evenodd" d="M135.009 428.003C132.616 476.146 114.8 514.299 95.2169 513.218C75.6335 512.138 61.698 472.234 64.091 424.09C66.2534 402.712 71.0563 383.176 77.2911 368.219C72.798 366.55 64.8812 360.383 58.0856 355.089L58.0855 355.089C52.9978 351.126 48.5386 347.652 46.6151 346.922L39.4494 425.818L22.6172 548.984C23.2838 562.867 31.2277 575.524 43.5045 582.048L236.768 684.249C243.045 687.539 249.933 689.045 256.822 688.766C263.655 688.431 270.376 686.312 276.376 682.465L459.695 563.313C471.417 555.731 478.138 542.516 477.583 528.521L462.75 482.857C444.433 480.978 411.646 465.907 376.207 449.618C338.027 432.068 296.769 413.104 267.21 407.697L256.822 635.072L246.378 402.177L244.989 401.508C244.212 401.381 240.581 400.553 235.739 399.448L235.739 399.448L235.738 399.447L235.738 399.447L235.737 399.447L235.735 399.447C230.527 398.258 223.918 396.75 217.949 395.451C226.765 412.229 231.686 437.52 230.295 465.499C227.862 514.457 207.024 553.104 183.753 551.82C160.482 550.537 143.59 509.807 146.024 460.849C150.182 424.841 157.37 401.093 167.23 387.772L131.653 380.209C134.589 394.069 135.879 410.491 135.009 428.003Z" fill="white"/>
<path d="M210.22 404.727C210.221 404.727 210.22 404.727 210.22 404.727C210.21 404.806 210.198 404.885 210.187 404.964C207.462 425.617 192.472 439.946 176.648 437.085C192.432 440.234 202.997 459.421 200.272 480.072L200.263 480.14L200.267 480.141L200.276 480.074C203.005 459.392 218.033 445.051 233.881 447.965C218.059 444.859 207.458 425.646 210.187 404.964C210.198 404.885 210.21 404.806 210.22 404.727Z" fill="white"/>
<path d="M234.155 448.017C234.259 448.036 234.362 448.054 234.466 448.072L234.464 448.08C234.361 448.058 234.258 448.037 234.155 448.017Z" fill="white"/>
<path d="M118.707 384.633C118.708 384.633 118.707 384.633 118.707 384.633C118.699 384.696 118.689 384.759 118.681 384.823C116.548 401.345 104.817 412.809 92.4336 410.519C104.786 413.039 113.054 428.388 110.921 444.909L110.914 444.964L110.918 444.964L110.924 444.911C113.06 428.365 124.822 416.892 137.225 419.224C124.842 416.739 116.545 401.368 118.681 384.823C118.689 384.759 118.699 384.696 118.707 384.633Z" fill="white"/>
<path d="M137.439 419.265C137.52 419.28 137.601 419.295 137.682 419.309L137.68 419.315C137.6 419.298 137.519 419.281 137.439 419.265Z" fill="white"/>
<path fill-rule="evenodd" clip-rule="evenodd" d="M441.077 446.168C480.206 458.202 516.084 460.03 553.79 438.297C556.077 436.977 556.28 431.391 553.536 431.95C500.178 441.597 446.21 424.18 418.921 401.483C418.718 401.33 319.472 353.345 276.836 358.016C304.633 350.908 334.158 357.052 361.65 363.044C380.097 367.461 398.035 372.793 415.872 378.937C414.043 341.92 415.567 272.049 416.228 264.889C416.77 259.204 417.3 253.517 417.831 247.829L417.831 247.828L417.831 247.828C419.735 227.403 421.64 206.975 424.104 186.64C424.327 184.972 424.725 182.739 425.102 180.624L425.103 180.622L425.103 180.62C425.586 177.907 426.036 175.388 426.036 174.504C426.036 153.837 425.527 132.511 417.041 113.316C427.103 129.007 432.337 146.881 435.64 165.263C451.749 168.969 490.929 191.769 523.351 221.017C523.96 221.525 524.57 221.829 525.231 221.931L528.127 221.169C528.33 221.119 528.533 221.017 528.635 220.814L530.058 218.58C530.109 218.123 530.058 217.716 529.956 217.209C523.147 183.289 515.067 149.877 496.773 120.425C479.393 92.3451 459.727 65.4834 439.705 39.1295C401.592 -10.8362 379.029 -12.258 334.31 30.9035C315.031 49.4624 274.902 88.9859 237.391 125.931L237.389 125.933L237.386 125.935C204.699 158.129 174 188.364 160.82 201.061C160.042 201.792 143.805 219.862 126.419 239.211L126.413 239.217L126.411 239.22L126.406 239.225L126.405 239.226C106.386 261.505 84.8496 285.473 83.6377 286.614C81.2161 284.473 78.269 282.078 75.075 279.481L75.0748 279.481C67.439 273.274 58.3919 265.921 51.7393 258.15C36.1283 243.772 25.0909 225.894 17.3452 213.078C14.8226 207.503 12.4016 201.833 10.0552 196.076C9.43056 194.544 7.5414 191.049 5.62501 190.55C2.88088 189.382 -0.371913 191.566 0.0346241 194.46C3.74428 223.048 21.7844 308.457 94.7071 343.189C106.903 348.978 120.675 353.294 136.174 355.833C141.967 356.747 148.014 357.509 154.366 357.864C243.449 362.942 311.392 392.444 368.968 417.579C368.968 417.579 403.676 438.145 441.077 446.168Z" fill="white"/>
</svg>
